<svg width="83" height="28" viewBox="0 0 83 28" fill="none" xmlns="http://www.w3.org/2000/svg">
<path d="M2.23242 7.95032C2.23242 6.21358 2.73896 4.82237 3.75508 3.77366C4.72873 2.7098 6.19679 2.16725 8.16229 2.1521C9.72438 2.1521 11.0529 2.50369 12.154 3.2099C13.252 3.93127 13.8192 5.15275 13.8525 6.8713C13.8525 7.85333 13.5978 8.68685 13.0851 9.37487C12.5483 10.0781 11.7748 10.5418 10.7678 10.76V10.8115C12.0508 10.9207 13.0639 11.4268 13.801 12.3331C14.5411 13.2303 14.9081 14.3669 14.9081 15.7429C14.8929 17.3524 14.4288 18.6314 13.525 19.5801C12.5938 20.5531 11.3229 21.0471 9.70921 21.0653C8.95395 21.0653 8.24116 20.9137 7.56779 20.6137C6.87926 20.3045 6.32115 19.8287 5.89347 19.1922H5.82978V25.8603H2.23242V7.95032ZM7.77101 9.69919H8.28665C8.92362 9.69919 9.43926 9.48399 9.83358 9.05662C10.2127 8.62926 10.4008 8.06247 10.4008 7.35929C10.4008 6.6561 10.2036 6.08022 9.80931 5.63467C9.415 5.20731 8.86599 4.99211 8.15926 4.99211C6.55471 5.01029 5.78124 5.92867 5.82978 7.74725V14.188C5.85404 16.831 6.82769 18.1253 8.75073 18.0737C9.57272 18.0737 10.2067 17.7797 10.6525 17.1947C11.0893 16.6674 11.3077 16.0157 11.3077 15.2458C11.2743 13.3666 10.3098 12.4119 8.41101 12.3786C8.19262 12.3786 7.9803 12.4149 7.76798 12.4907V9.69919H7.77101Z" fill="#2359A8"/>
<path d="M22.9066 11.639C23.5588 11.9299 24.0987 12.3937 24.5233 13.0241C24.9055 13.5788 25.1542 14.2244 25.2695 14.9579C25.3362 15.3882 25.3635 16.0066 25.3514 16.8158H18.5328C18.5692 17.7554 18.8968 18.4131 19.5125 18.789C19.8856 19.0224 20.3375 19.1406 20.8623 19.1406C21.4204 19.1406 21.8723 18.9981 22.2211 18.7102C22.4122 18.5556 22.579 18.3404 22.7246 18.0676H25.224C25.1572 18.6223 24.857 19.186 24.317 19.7589C23.4799 20.6682 22.303 21.1228 20.7955 21.1228C19.5489 21.1228 18.4509 20.7379 17.4985 19.9711C16.546 19.2042 16.0698 17.9555 16.0698 16.2248C16.0698 14.6032 16.5005 13.3605 17.3589 12.4967C18.2173 11.6329 19.3335 11.1995 20.7076 11.1995C21.5235 11.1995 22.2575 11.3449 22.9097 11.639H22.9066ZM19.2425 13.7515C18.8968 14.1092 18.6784 14.5911 18.5904 15.2003H22.8096C22.7641 14.5517 22.5487 14.0577 22.1574 13.7212C21.7661 13.3848 21.2839 13.2181 20.7045 13.2181C20.0767 13.2181 19.5883 13.3969 19.2425 13.7515Z" fill="#2359A8"/>
<path d="M25.6274 13.2787V11.5359H26.9317V8.92627H29.3552V11.5359H30.8748V13.2787H29.3552V18.2222C29.3552 18.6072 29.4038 18.8436 29.5008 18.9406C29.5979 19.0345 29.8951 19.083 30.3956 19.083C30.4714 19.083 30.5473 19.083 30.6322 19.08C30.7141 19.08 30.796 19.0739 30.8779 19.0679V20.8955L29.7192 20.938C28.5636 20.9774 27.7719 20.7773 27.3473 20.3378C27.0712 20.059 26.9347 19.6256 26.9347 19.0406V13.2818H25.6305L25.6274 13.2787Z" fill="#2359A8"/>
<path d="M36.1556 15.1153C36.6106 15.0577 36.9382 14.988 37.1323 14.9001C37.4842 14.7516 37.6601 14.5212 37.6601 14.206C37.6601 13.8241 37.5236 13.5574 37.2567 13.4119C36.9867 13.2664 36.5894 13.1937 36.0677 13.1937C35.4823 13.1937 35.0667 13.3361 34.821 13.6241C34.6481 13.8362 34.5298 14.1211 34.4722 14.4818H32.1094C32.1609 13.6635 32.3915 12.9906 32.8009 12.4632C33.45 11.6388 34.5662 11.2266 36.1496 11.2266C37.1778 11.2266 38.0938 11.4296 38.8916 11.8358C39.6893 12.2419 40.0897 13.0088 40.0897 14.1363V18.4281C40.0897 18.7252 40.0957 19.0858 40.1079 19.5102C40.1261 19.8315 40.1746 20.0497 40.2535 20.1618C40.3323 20.277 40.4536 20.371 40.6144 20.4437V20.8044H37.9513C37.8754 20.6165 37.8269 20.4376 37.7966 20.2709C37.7693 20.1042 37.745 19.9163 37.7268 19.7042C37.3871 20.0709 36.9958 20.3831 36.553 20.6407C36.0222 20.9438 35.4246 21.0954 34.7543 21.0954C33.902 21.0954 33.1983 20.8529 32.6432 20.371C32.0881 19.889 31.8091 19.201 31.8091 18.316C31.8091 17.1672 32.255 16.3337 33.1497 15.8185C33.6411 15.5396 34.36 15.3365 35.3124 15.2183L36.1526 15.1153H36.1556ZM37.654 16.258C37.4963 16.3549 37.3386 16.4337 37.1808 16.4944C37.0201 16.555 36.8017 16.6095 36.5226 16.6611L35.9645 16.7641C35.4428 16.8551 35.0667 16.9672 34.8392 17.0975C34.454 17.3218 34.2599 17.6674 34.2599 18.1371C34.2599 18.5554 34.3782 18.8555 34.6117 19.0434C34.8483 19.2283 35.1334 19.3223 35.4701 19.3223C36.004 19.3223 36.4984 19.1677 36.9473 18.8585C37.3992 18.5494 37.6328 17.9856 37.651 17.1672V16.258H37.654Z" fill="#2359A8"/>
<path d="M42.5859 6.18921H45.789L51.5945 16.3793V6.18921H54.4426V20.8045H51.3882L45.4341 10.4326V20.8045H42.5859V6.18921Z" fill="#2359A8"/>
<path d="M65.0071 6.18921H68.471L63.5785 15.3245V20.8045H60.521V15.3245L55.4617 6.18921H59.0651L62.1013 12.5542L65.0071 6.18921Z" fill="#2359A8"/>
<path d="M69.9269 7.71675C71.1038 6.51346 72.6052 5.91333 74.4221 5.91333C76.8577 5.91333 78.6352 6.71956 79.7635 8.33204C80.3853 9.23829 80.719 10.1476 80.7645 11.0599H77.707C77.5129 10.3597 77.2642 9.82933 76.9578 9.47471C76.4118 8.84124 75.6081 8.52299 74.5373 8.52299C73.4666 8.52299 72.59 8.97157 71.9622 9.8657C71.3343 10.7598 71.0188 12.0298 71.0188 13.6696C71.0188 15.3093 71.3495 16.5368 72.0137 17.3522C72.678 18.1675 73.5212 18.5767 74.5434 18.5767C75.5656 18.5767 76.3906 18.2251 76.9427 17.5249C77.246 17.1491 77.4977 16.5823 77.701 15.8306H80.7372C80.4763 17.4249 79.806 18.7191 78.7292 19.7163C77.6524 20.7135 76.2723 21.2136 74.5919 21.2136C72.5112 21.2136 70.8733 20.5407 69.6842 19.192C68.4922 17.8371 67.8977 15.9791 67.8977 13.6211C67.8977 11.069 68.5741 9.1019 69.9299 7.71978L69.9269 7.71675Z" fill="#2359A8"/>
</svg>
