<?xml version="1.0" encoding="UTF-8"?>
<svg id="Layer_1" data-name="Layer 1" xmlns="http://www.w3.org/2000/svg" viewBox="0 0 95.31 42.38">
  <defs>
    <style>
      .cls-1 {
        fill: #2359a8;
      }
    </style>
  </defs>
  <path class="cls-1" d="M12.4,32c-1.09,0-1.97.88-1.97,1.88v6.5c0,1.12.88,2,1.97,2h17.63c1.09,0,1.97-.88,1.97-2v-6.5c0-1-.88-1.88-1.97-1.88H12.4Z"/>
  <path class="cls-1" d="M12.4,0c-1.09,0-1.97.88-1.97,2v6.5c0,1,.88,1.88,1.97,1.88h17.63c1.09,0,1.97-.88,1.97-1.88V2c0-1.12-.88-2-1.97-2H12.4Z"/>
  <path class="cls-1" d="M1.97,10.5c-1.09,0-1.97.88-1.97,1.88v17.62c0,1.12.88,2,1.97,2h6.49c1.09,0,1.97-.88,1.97-2V12.38c0-1-.88-1.88-1.97-1.88H1.97Z"/>
  <path class="cls-1" d="M75.71,32c-1.09,0-1.97.88-1.97,1.88v6.5c0,1.12.88,2,1.97,2h17.63c1.09,0,1.97-.88,1.97-2v-6.5c0-1-.88-1.88-1.97-1.88h-17.63Z"/>
  <path class="cls-1" d="M65.28,0c-1.09,0-1.97.88-1.97,2v28c0,1.12.88,2,1.97,2h6.5c1.09,0,1.97-.88,1.97-2V2c0-1.12-.88-2-1.97-2h-6.5Z"/>
  <path class="cls-1" d="M44.41,0c-1.09,0-1.97.88-1.97,2v6.5c0,1,.88,1.88,1.97,1.88h6.49c1.09,0,1.97-.88,1.97-1.88V2c0-1.12-.88-2-1.97-2h-6.49Z"/>
  <path class="cls-1" d="M44.41,20.75c-1.09,0-1.97,1-1.97,2v17.62c0,1.12.88,2,1.97,2h6.49c1.09,0,1.97-.88,1.97-2v-17.62c0-1-.88-2-1.97-2h-6.49Z"/>
</svg>